<svg viewBox="0 0 16 16" fill="none" xmlns="http://www.w3.org/2000/svg">
<path d="M9.10385 8.01018L13.7491 3.3649C13.8266 3.29274 13.8887 3.20572 13.9318 3.10903C13.9748 3.01234 13.998 2.90797 13.9999 2.80213C14.0017 2.6963 13.9823 2.59117 13.9426 2.49302C13.903 2.39487 13.844 2.30571 13.7691 2.23087C13.6943 2.15602 13.6051 2.09701 13.507 2.05737C13.4088 2.01772 13.3037 1.99826 13.1979 2.00012C13.092 2.00199 12.9877 2.02516 12.891 2.06824C12.7943 2.11132 12.7073 2.17343 12.6351 2.25087L7.98982 6.89615L3.34454 2.25087C3.19512 2.11164 2.99749 2.03584 2.79329 2.03945C2.58908 2.04305 2.39425 2.12577 2.24983 2.27019C2.10542 2.41461 2.02269 2.60944 2.01909 2.81364C2.01549 3.01785 2.09129 3.21548 2.23052 3.3649L6.8758 8.01018L2.23052 12.6555C2.08291 12.8032 2 13.0036 2 13.2125C2 13.4213 2.08291 13.6217 2.23052 13.7695C2.37831 13.9171 2.57865 14 2.78753 14C2.99641 14 3.19675 13.9171 3.34454 13.7695L7.98982 9.1242L12.6351 13.7695C12.7829 13.9171 12.9832 14 13.1921 14C13.401 14 13.6013 13.9171 13.7491 13.7695C13.8967 13.6217 13.9796 13.4213 13.9796 13.2125C13.9796 13.0036 13.8967 12.8032 13.7491 12.6555L9.10385 8.01018Z"
    fill="currentColor"/>
</svg>
