<svg width="22" height="22" viewBox="0 0 22 22" fill="none" xmlns="http://www.w3.org/2000/svg">
<path fill-rule="evenodd" clip-rule="evenodd" d="M9.34359 8.75788L11 6.1078L12.6564 8.75788C12.7131 8.84859 12.7878 8.92667 12.876 8.98724C12.9641 9.04782 13.0638 9.0896 13.1688 9.10998C13.2738 9.13036 13.3819 9.1289 13.4863 9.1057C13.5907 9.0825 13.6892 9.03806 13.7757 8.97513L17.3323 6.3883L15.9665 13.5621C15.9565 13.6144 15.9286 13.6616 15.8876 13.6955C15.8467 13.7295 15.7951 13.7481 15.7419 13.7482H6.25901C6.20563 13.7483 6.1539 13.7298 6.11273 13.6958C6.07156 13.6618 6.04354 13.6146 6.03351 13.5621L4.66767 6.38738L8.22434 8.97421C8.3108 9.03699 8.40924 9.08131 8.51356 9.10443C8.61787 9.12754 8.72583 9.12895 8.83071 9.10858C8.93559 9.0882 9.03517 9.04648 9.12324 8.98599C9.21131 8.9255 9.286 8.84754 9.34267 8.75696M11.66 4.56963C11.59 4.45748 11.4926 4.365 11.377 4.30088C11.2613 4.23677 11.1313 4.20312 10.9991 4.20312C10.8669 4.20312 10.7368 4.23677 10.6212 4.30088C10.5056 4.365 10.4082 4.45748 10.3382 4.56963L8.51584 7.48738L4.25884 4.39088C3.68776 3.97563 2.90217 4.47338 3.03509 5.16638L4.68234 13.8197C4.75233 14.1865 4.94811 14.5174 5.23593 14.7554C5.52375 14.9933 5.88556 15.1234 6.25901 15.1232H15.7419C16.1153 15.1232 16.477 14.9929 16.7647 14.7548C17.0523 14.5166 17.2479 14.1856 17.3177 13.8188L18.9649 5.16638C19.0978 4.47338 18.3132 3.97471 17.7421 4.39088L13.4842 7.48738L11.66 4.56963ZM5.50001 16.4982C5.31767 16.4982 5.1428 16.5706 5.01387 16.6996C4.88494 16.8285 4.81251 17.0034 4.81251 17.1857C4.81251 17.368 4.88494 17.5429 5.01387 17.6718C5.1428 17.8008 5.31767 17.8732 5.50001 17.8732H16.5C16.6823 17.8732 16.8572 17.8008 16.9861 17.6718C17.1151 17.5429 17.1875 17.368 17.1875 17.1857C17.1875 17.0034 17.1151 16.8285 16.9861 16.6996C16.8572 16.5706 16.6823 16.4982 16.5 16.4982H5.50001Z" fill="#232323"/>
</svg>
