<svg width="40" height="40" viewBox="0 0 40 40" fill="none" xmlns="http://www.w3.org/2000/svg"><path d="M39.5227 20.2216C39.5227 18.8352 39.4091 17.4886 39.1818 16.1818H20.2273V23.6705H31.3409C30.8523 26.0909 29.2727 28.125 27.0568 29.5568V34.0795H33.2955C37.2045 30.4545 39.5227 25.7841 39.5227 20.2216Z" fill="#4285F4"/><path d="M20.2273 40C25.6136 40 30.1591 38.2386 33.2955 35.5682L27.0568 31.0455C25.1136 32.3068 22.8409 33.0682 20.2273 33.0682C15.1591 33.0682 10.8523 29.7841 9.35227 25.2955H2.94318V29.8182C6.07955 35.9205 12.6136 40 20.2273 40Z" fill="#34A853"/><path d="M9.35227 23.8182C8.92045 22.5568 8.68182 21.2159 8.68182 19.8182C8.68182 18.4205 8.92045 17.0795 9.35227 15.8182V11.2955H2.94318C1.07955 14.8182 0 19.0795 0 23.8182C0 28.5568 1.07955 32.8182 2.94318 36.3409L9.35227 31.8182V23.8182Z" fill="#FBBC05"/><path d="M20.2273 8.63636C23.1477 8.63636 25.7614 9.64773 27.7955 11.5455L33.4545 5.88636C30.1477 2.82955 25.6136 0.909091 20.2273 0.909091C12.6136 0.909091 6.07955 4.72727 2.94318 9.81818L9.35227 14.3409C10.8523 9.85227 15.1591 8.63636 20.2273 8.63636Z" fill="#EA4335"/></svg>