<svg viewBox="0 0 16 16" fill="none" xmlns="http://www.w3.org/2000/svg">
<path d="M8.00125 1.33203C11.6833 1.33203 14.6686 4.31737 14.6686 8.00003C14.6686 11.682 11.6833 14.6674 8.00125 14.6674C4.31859 14.6674 1.33325 11.682 1.33325 8.00003C1.33325 4.31737 4.31859 1.33203 8.00125 1.33203ZM8.00125 2.33203C7.25179 2.3239 6.50816 2.4645 5.8134 2.74568C5.11864 3.02686 4.48654 3.44304 3.95369 3.97014C3.42085 4.49724 2.99783 5.12479 2.70913 5.81646C2.42043 6.50813 2.27178 7.25019 2.27178 7.9997C2.27178 8.7492 2.42043 9.49127 2.70913 10.1829C2.99783 10.8746 3.42085 11.5022 3.95369 12.0293C4.48654 12.5564 5.11864 12.9725 5.8134 13.2537C6.50816 13.5349 7.25179 13.6755 8.00125 13.6674C9.49376 13.6512 10.9196 13.0469 11.9693 11.9858C13.019 10.9247 13.6078 9.4923 13.6078 7.9997C13.6078 6.5071 13.019 5.07474 11.9693 4.01361C10.9196 2.95247 9.49376 2.34822 8.00125 2.33203ZM7.99992 6.99937C8.13253 6.99937 8.2597 7.05204 8.35347 7.14581C8.44724 7.23958 8.49992 7.36676 8.49992 7.49937V10.8327C8.49992 10.9653 8.44724 11.0925 8.35347 11.1863C8.2597 11.28 8.13253 11.3327 7.99992 11.3327C7.86731 11.3327 7.74013 11.28 7.64637 11.1863C7.5526 11.0925 7.49992 10.9653 7.49992 10.8327V7.49937C7.49992 7.36676 7.5526 7.23958 7.64637 7.14581C7.74013 7.05204 7.86731 6.99937 7.99992 6.99937ZM7.99992 5.99936C8.17673 5.99936 8.3463 5.92913 8.47132 5.8041C8.59635 5.67908 8.66659 5.50951 8.66659 5.3327C8.66659 5.15589 8.59635 4.98632 8.47132 4.86129C8.3463 4.73627 8.17673 4.66603 7.99992 4.66603C7.82311 4.66603 7.65354 4.73627 7.52851 4.86129C7.40349 4.98632 7.33325 5.15589 7.33325 5.3327C7.33325 5.50951 7.40349 5.67908 7.52851 5.8041C7.65354 5.92913 7.82311 5.99936 7.99992 5.99936Z"
    fill="currentColor"/>
</svg>
