<svg width="40" height="40" viewBox="0 0 40 40" fill="none" xmlns="http://www.w3.org/2000/svg"><path d="M20 40C31.0457 40 40 31.0457 40 20C40 8.9543 31.0457 0 20 0C8.9543 0 0 8.9543 0 20C0 31.0457 8.9543 40 20 40Z" fill="#FEE500"/><path d="M20.0118 12.889C15.6452 12.889 12.1113 15.8834 12.1113 19.654C12.1113 22.0346 13.553 24.0461 15.582 25.281L14.7388 28.3335L17.954 26.3589C18.6166 26.4886 19.3042 26.5557 20.0118 26.5557C24.3784 26.5557 27.9123 23.5613 27.9123 19.7907C27.9123 15.9482 24.3534 12.889 20.0118 12.889Z" fill="#191919"/></svg>