<svg width="22" height="22" viewBox="0 0 22 22" fill="none" xmlns="http://www.w3.org/2000/svg">
<path d="M7.24716 4.65894C7.16365 4.60943 7.06853 4.5829 6.97146 4.58205C6.87439 4.5812 6.77882 4.60607 6.69446 4.65411C6.61011 4.70215 6.53997 4.77167 6.49118 4.85559C6.44238 4.93951 6.41667 5.03486 6.41666 5.13194V17.8681C6.41667 17.9652 6.44238 18.0605 6.49118 18.1444C6.53997 18.2284 6.61011 18.2979 6.69446 18.3459C6.77882 18.394 6.87439 18.4188 6.97146 18.418C7.06853 18.4171 7.16365 18.3906 7.24716 18.3411L17.9932 11.973C18.0753 11.9243 18.1433 11.8551 18.1905 11.7722C18.2377 11.6892 18.2626 11.5955 18.2626 11.5C18.2626 11.4046 18.2377 11.3108 18.1905 11.2279C18.1433 11.1449 18.0753 11.0757 17.9932 11.027L7.24716 4.65894Z" stroke="#232323" stroke-width="1.4" stroke-linecap="round" stroke-linejoin="round"/>
</svg>
