<svg viewBox="0 0 26 26" fill="none" xmlns="http://www.w3.org/2000/svg">
<path d="M11.6673 19.8267C10.0539 19.8267 8.4767 19.3483 7.13521 18.4519C5.79371 17.5556 4.74814 16.2816 4.13072 14.791C3.5133 13.3004 3.35175 11.6602 3.66651 10.0778C3.98127 8.49537 4.7582 7.04185 5.89905 5.901C7.03989 4.76015 8.49342 3.98323 10.0758 3.66847C11.6582 3.35371 13.2984 3.51525 14.789 4.13268C16.2796 4.7501 17.5536 5.79566 18.45 7.13716C19.3463 8.47865 19.8248 10.0558 19.8248 11.6692C19.8248 12.7405 19.6138 13.8012 19.2038 14.791C18.7939 15.7807 18.193 16.68 17.4355 17.4374C16.678 18.1949 15.7787 18.7958 14.789 19.2058C13.7993 19.6157 12.7385 19.8267 11.6673 19.8267ZM11.6673 5.14756C10.3817 5.14756 9.12498 5.52877 8.05606 6.243C6.98714 6.95723 6.15402 7.97239 5.66205 9.16011C5.17008 10.3478 5.04136 11.6548 5.29216 12.9156C5.54297 14.1765 6.16203 15.3347 7.07108 16.2437C7.98012 17.1528 9.13831 17.7719 10.3992 18.0227C11.6601 18.2735 12.967 18.1447 14.1547 17.6528C15.3424 17.1608 16.3576 16.3277 17.0718 15.2588C17.7861 14.1898 18.1673 12.9331 18.1673 11.6476C18.1673 9.92365 17.4825 8.27035 16.2635 7.05136C15.0445 5.83238 13.3912 5.14756 11.6673 5.14756Z"
    fill="currentColor"/>
<path d="M21.6668 22.4773C21.56 22.4778 21.4543 22.457 21.3557 22.4161C21.2571 22.3752 21.1676 22.315 21.0926 22.239L16.6185 17.7648C16.4749 17.6108 16.3968 17.4071 16.4005 17.1966C16.4042 16.9861 16.4895 16.7853 16.6384 16.6364C16.7872 16.4875 16.9881 16.4023 17.1986 16.3986C17.4091 16.3949 17.6128 16.473 17.7668 16.6165L22.241 21.0907C22.3931 21.243 22.4786 21.4495 22.4786 21.6648C22.4786 21.8802 22.3931 22.0867 22.241 22.239C22.1659 22.315 22.0765 22.3752 21.9779 22.4161C21.8793 22.457 21.7735 22.4778 21.6668 22.4773Z"
    fill="currentColor"/>
</svg>
