<svg width="22" height="22" viewBox="0 0 22 22" fill="none" xmlns="http://www.w3.org/2000/svg">
<path d="M18.535 8.75547C18.1409 8.28797 17.5725 8.02214 16.9584 8.02214H13.2642V5.5013C13.2642 4.10797 12.1367 2.98047 10.67 2.98047C10.0284 2.98047 9.45085 3.36547 9.19419 3.9613L6.86585 9.39714H5.15169C3.95085 9.39714 2.97919 10.3688 2.97919 11.5696V16.8588C2.97919 18.0505 3.96002 19.0221 5.15169 19.0221H15.7484C16.7475 19.0221 17.6 18.3071 17.7742 17.3171L18.9842 10.4421C19.085 9.83714 18.92 9.22297 18.5259 8.75547H18.535ZM5.15169 17.6471C4.71169 17.6471 4.35419 17.2896 4.35419 16.8588V11.5696C4.35419 11.1296 4.71169 10.7721 5.15169 10.7721H6.62752V17.6471H5.15169ZM16.4267 17.0788C16.3717 17.4088 16.0875 17.6471 15.7484 17.6471H8.01169V10.2221L10.4592 4.49297C10.4959 4.41047 10.5784 4.3463 10.7525 4.3463C11.385 4.3463 11.8892 4.85964 11.8892 5.49214V9.38797H16.9584C17.1692 9.38797 17.3525 9.47047 17.4809 9.6263C17.6092 9.78214 17.6642 9.9838 17.6275 10.1946L16.4175 17.0696L16.4267 17.0788Z" fill="#232323"/>
</svg>
