<svg width="25" height="25" viewBox="0 0 25 25" fill="none" xmlns="http://www.w3.org/2000/svg">
<g clip-path="url(#clip0_1119_7110)">
<g filter="url(#filter0_d_1119_7110)">
<path d="M5.5 22.5C4.95 22.5 4.47933 22.3043 4.088 21.913C3.69667 21.5217 3.50067 21.0507 3.5 20.5V9.225C3.2 9.04167 2.95833 8.80433 2.775 8.513C2.59167 8.22167 2.5 7.884 2.5 7.5V4.5C2.5 3.95 2.696 3.47933 3.088 3.088C3.48 2.69667 3.95067 2.50067 4.5 2.5H20.5C21.05 2.5 21.521 2.696 21.913 3.088C22.305 3.48 22.5007 3.95067 22.5 4.5V7.5C22.5 7.88333 22.4083 8.221 22.225 8.513C22.0417 8.805 21.8 9.042 21.5 9.224V20.5C21.5 21.05 21.3043 21.521 20.913 21.913C20.5217 22.305 20.0507 22.5007 19.5 22.5H5.5ZM5.5 9.5V20.5H19.5V9.5H5.5ZM4.5 7.5H20.5V4.5H4.5V7.5ZM9.5 14.5H15.5V12.5H9.5V14.5Z" fill="white"/>
</g>
</g>
<defs>
<filter id="filter0_d_1119_7110" x="-1.5" y="2.5" width="28" height="28" filterUnits="userSpaceOnUse" color-interpolation-filters="sRGB">
<feFlood flood-opacity="0" result="BackgroundImageFix"/>
<feColorMatrix in="SourceAlpha" type="matrix" values="0 0 0 0 0 0 0 0 0 0 0 0 0 0 0 0 0 0 127 0" result="hardAlpha"/>
<feOffset dy="4"/>
<feGaussianBlur stdDeviation="2"/>
<feComposite in2="hardAlpha" operator="out"/>
<feColorMatrix type="matrix" values="0 0 0 0 0 0 0 0 0 0 0 0 0 0 0 0 0 0 0.25 0"/>
<feBlend mode="normal" in2="BackgroundImageFix" result="effect1_dropShadow_1119_7110"/>
<feBlend mode="normal" in="SourceGraphic" in2="effect1_dropShadow_1119_7110" result="shape"/>
</filter>
<clipPath id="clip0_1119_7110">
<rect width="24" height="24" fill="white" transform="translate(0.5 0.5)"/>
</clipPath>
</defs>
</svg>
