<svg width="60" height="44" viewBox="0 0 60 44" fill="none" xmlns="http://www.w3.org/2000/svg">
<path d="M20.5198 34.3964L53.4038 1.17595C54.1798 0.391983 55.0852 0 56.1199 0C57.1546 0 58.0599 0.391983 58.836 1.17595C59.612 1.95991 60 2.89152 60 3.97078C60 5.05004 59.612 5.98034 58.836 6.76169L23.2359 42.824C22.4599 43.608 21.5545 44 20.5198 44C19.4851 44 18.5798 43.608 17.8038 42.824L1.11926 25.9688C0.343241 25.1849 -0.0292501 24.2546 0.00179082 23.1779C0.0328317 22.1013 0.437656 21.1696 1.21627 20.3831C1.99488 19.5965 2.91705 19.2045 3.98279 19.2071C5.04853 19.2097 5.96941 19.6017 6.74543 20.3831L20.5198 34.3964Z" fill="#F2F2F2"/>
</svg>
