<svg width="169" height="31" viewBox="0 0 169 31" fill="none" xmlns="http://www.w3.org/2000/svg">
<g filter="url(#filter0_ii_732_5667)">
<rect y="19.9902" width="31.1003" height="4.91058" rx="2.45529" transform="rotate(-40 0 19.9902)" fill="url(#paint0_linear_732_5667)"/>
</g>
<g filter="url(#filter1_ii_732_5667)">
<path d="M1.57851 8.51172C2.45014 7.47295 3.99883 7.33746 5.0376 8.20909L25.1001 25.0435C26.1389 25.9152 26.2744 27.4638 25.4027 28.5026C24.5311 29.5414 22.9824 29.6769 21.9436 28.8052L1.88114 11.9708C0.842369 11.0992 0.706877 9.55049 1.57851 8.51172Z" fill="url(#paint1_linear_732_5667)"/>
</g>
<g filter="url(#filter2_f_732_5667)">
<circle cx="23.653" cy="27.0119" r="1.63686" fill="white" fill-opacity="0.3"/>
</g>
<g filter="url(#filter3_f_732_5667)">
<circle cx="23.5709" cy="3.43373" r="1.63686" fill="white" fill-opacity="0.3"/>
</g>
<g filter="url(#filter4_dii_732_5667)">
<path d="M40.6345 16.5914V15.8174H39.6625V14.9714H38.6905V14.0894H37.6825V9.17541H38.6905V8.25741H39.6265V7.42941H40.5085V6.67341H48.5545V7.50141H49.5265V9.67941H48.5545V10.5254H42.9025V11.1734H42.2365V12.2534H42.9025V12.9014H46.8085V13.6934H47.7625V14.5214H48.7525V15.4214H49.7605V20.3174H48.7525V21.2354H47.7985V22.0634H46.9345V22.8374H38.8345V21.9914H37.8985V19.8134H38.8345V18.9854H44.4865V18.3194H45.1525V17.2574H44.4865V16.5914H40.6345ZM55.5213 11.4794V18.0494H56.5653V19.0214H62.3793V19.9034H63.3333V21.9554H62.3793V22.8554H54.3873V21.9734H53.2533V20.9654H52.1913V19.8854H51.1833V9.64341H52.1913V8.54541H53.2533V7.53741H54.3873V6.67341H62.3793V7.57341H63.3333V9.62541H62.3793V10.4894H56.5653V11.4794H55.5213ZM74.3292 17.3474H75.2832V18.3194H76.2552V19.2734H77.1732V21.9914H76.2552V22.8374H73.5012V21.9914H72.5652V21.0374H71.6652V20.0474H70.8372V19.0394H70.0272V18.0494H69.0552V22.0274H68.1912V22.8554H65.6892V22.0274H64.8252V7.53741H65.6892V6.67341H74.4372V7.53741H75.4092V8.45541H76.3272V9.51741H77.0472V14.5394H76.2192V15.5474H75.3012V16.5194H74.3292V17.3474ZM71.8992 14.4854V13.6034H72.7812V11.1734H71.8992V10.2914H69.0372V14.4854H71.8992ZM86.76 19.0394V19.8854H87.588V22.0274H86.76V22.8554H79.02V22.0274H78.174V19.8854H79.02V19.0394H80.748V10.4534H79.02V9.62541H78.174V7.48341H79.02V6.65541H86.76V7.48341H87.588V9.62541H86.76V10.4534H85.032V19.0394H86.76ZM95.7879 14.5574V13.6934H96.6699V11.1734H95.7879V10.2914H92.9259V14.5574H95.7879ZM100.936 9.51741V15.3494H100.108V16.3934H99.1899V17.3114H98.2179V18.1934H92.9439V21.9734H92.0799V22.8554H89.5779V21.9734H88.7139V7.53741H89.5779V6.67341H98.3259V7.53741H99.2979V8.45541H100.216V9.51741H100.936ZM113.766 7.50141H114.594V9.71541H113.766V10.5434H110.436V22.0274H109.608V22.8554H106.944V22.0274H106.116V10.5434H102.732V9.71541H101.904V7.50141H102.732V6.67341H113.766V7.50141ZM128.422 9.60741V19.9214H127.396V21.0194H126.406V21.9734H125.488V22.8554H118.648V21.9734H117.73V21.0194H116.74V19.9214H115.714V9.60741H116.74V8.50941H117.73V7.53741H118.648V6.67341H125.488V7.53741H126.406V8.50941H127.396V9.60741H128.422ZM119.872 11.3714V18.1574H120.808V19.1294H123.328V18.1574H124.264V11.3714H123.328V10.3814H120.808V11.3714H119.872ZM137.061 14.5574V13.6934H137.943V11.1734H137.061V10.2914H134.199V14.5574H137.061ZM142.209 9.51741V15.3494H141.381V16.3934H140.463V17.3114H139.491V18.1934H134.217V21.9734H133.353V22.8554H130.851V21.9734H129.987V7.53741H130.851V6.67341H139.599V7.53741H140.571V8.45541H141.489V9.51741H142.209ZM151.782 19.0394V19.8854H152.61V22.0274H151.782V22.8554H144.042V22.0274H143.196V19.8854H144.042V19.0394H145.77V10.4534H144.042V9.62541H143.196V7.48341H144.042V6.65541H151.782V7.48341H152.61V9.62541H151.782V10.4534H150.054V19.0394H151.782ZM162.789 12.9194H161.853V11.6414H160.971V10.5254H159.747V11.6414H158.865V12.9194H157.929V14.5214H162.789V12.9194ZM157.929 18.1934V22.0274H157.047V22.8554H154.599V22.0274H153.735V11.4074H154.671V9.93141H155.607V8.65341H156.525V7.60941H157.407V6.67341H163.293V7.60941H164.157V8.65341H165.075V9.93141H166.029V11.4074H166.983V22.0274H166.101V22.8554H163.653V22.0274H162.789V18.1934H157.929Z" fill="url(#paint2_linear_732_5667)"/>
</g>
<defs>
<filter id="filter0_ii_732_5667" x="1.00391" y="0.185477" width="24.9731" height="22.8899" filterUnits="userSpaceOnUse" color-interpolation-filters="sRGB">
<feFlood flood-opacity="0" result="BackgroundImageFix"/>
<feBlend mode="normal" in="SourceGraphic" in2="BackgroundImageFix" result="shape"/>
<feColorMatrix in="SourceAlpha" type="matrix" values="0 0 0 0 0 0 0 0 0 0 0 0 0 0 0 0 0 0 127 0" result="hardAlpha"/>
<feOffset dy="0.327372"/>
<feGaussianBlur stdDeviation="0.654744"/>
<feComposite in2="hardAlpha" operator="arithmetic" k2="-1" k3="1"/>
<feColorMatrix type="matrix" values="0 0 0 0 0.643137 0 0 0 0 0.544575 0 0 0 0 0.415686 0 0 0 0.2 0"/>
<feBlend mode="normal" in2="shape" result="effect1_innerShadow_732_5667"/>
<feColorMatrix in="SourceAlpha" type="matrix" values="0 0 0 0 0 0 0 0 0 0 0 0 0 0 0 0 0 0 127 0" result="hardAlpha"/>
<feOffset dy="-0.818429"/>
<feGaussianBlur stdDeviation="0.654744"/>
<feComposite in2="hardAlpha" operator="arithmetic" k2="-1" k3="1"/>
<feColorMatrix type="matrix" values="0 0 0 0 0.811765 0 0 0 0 0.643464 0 0 0 0 0.407843 0 0 0 0.8 0"/>
<feBlend mode="normal" in2="effect1_innerShadow_732_5667" result="effect2_innerShadow_732_5667"/>
</filter>
<filter id="filter1_ii_732_5667" x="1.00391" y="6.81634" width="24.9731" height="22.8899" filterUnits="userSpaceOnUse" color-interpolation-filters="sRGB">
<feFlood flood-opacity="0" result="BackgroundImageFix"/>
<feBlend mode="normal" in="SourceGraphic" in2="BackgroundImageFix" result="shape"/>
<feColorMatrix in="SourceAlpha" type="matrix" values="0 0 0 0 0 0 0 0 0 0 0 0 0 0 0 0 0 0 127 0" result="hardAlpha"/>
<feOffset dy="0.327372"/>
<feGaussianBlur stdDeviation="0.654744"/>
<feComposite in2="hardAlpha" operator="arithmetic" k2="-1" k3="1"/>
<feColorMatrix type="matrix" values="0 0 0 0 0.643137 0 0 0 0 0.544575 0 0 0 0 0.415686 0 0 0 0.2 0"/>
<feBlend mode="normal" in2="shape" result="effect1_innerShadow_732_5667"/>
<feColorMatrix in="SourceAlpha" type="matrix" values="0 0 0 0 0 0 0 0 0 0 0 0 0 0 0 0 0 0 127 0" result="hardAlpha"/>
<feOffset dy="-0.818429"/>
<feGaussianBlur stdDeviation="0.654744"/>
<feComposite in2="hardAlpha" operator="arithmetic" k2="-1" k3="1"/>
<feColorMatrix type="matrix" values="0 0 0 0 0.811765 0 0 0 0 0.643464 0 0 0 0 0.407843 0 0 0 0.8 0"/>
<feBlend mode="normal" in2="effect1_innerShadow_732_5667" result="effect2_innerShadow_732_5667"/>
</filter>
<filter id="filter2_f_732_5667" x="20.3793" y="23.7381" width="6.54764" height="6.54716" filterUnits="userSpaceOnUse" color-interpolation-filters="sRGB">
<feFlood flood-opacity="0" result="BackgroundImageFix"/>
<feBlend mode="normal" in="SourceGraphic" in2="BackgroundImageFix" result="shape"/>
<feGaussianBlur stdDeviation="0.818429" result="effect1_foregroundBlur_732_5667"/>
</filter>
<filter id="filter3_f_732_5667" x="20.2972" y="0.160016" width="6.54764" height="6.54716" filterUnits="userSpaceOnUse" color-interpolation-filters="sRGB">
<feFlood flood-opacity="0" result="BackgroundImageFix"/>
<feBlend mode="normal" in="SourceGraphic" in2="BackgroundImageFix" result="shape"/>
<feGaussianBlur stdDeviation="0.818429" result="effect1_foregroundBlur_732_5667"/>
</filter>
<filter id="filter4_dii_732_5667" x="35.6826" y="5.47468" width="133.301" height="20.1992" filterUnits="userSpaceOnUse" color-interpolation-filters="sRGB">
<feFlood flood-opacity="0" result="BackgroundImageFix"/>
<feColorMatrix in="SourceAlpha" type="matrix" values="0 0 0 0 0 0 0 0 0 0 0 0 0 0 0 0 0 0 127 0" result="hardAlpha"/>
<feOffset dy="0.818429"/>
<feGaussianBlur stdDeviation="1"/>
<feComposite in2="hardAlpha" operator="out"/>
<feColorMatrix type="matrix" values="0 0 0 0 1 0 0 0 0 0.583333 0 0 0 0 0 0 0 0 0.5 0"/>
<feBlend mode="normal" in2="BackgroundImageFix" result="effect1_dropShadow_732_5667"/>
<feBlend mode="normal" in="SourceGraphic" in2="effect1_dropShadow_732_5667" result="shape"/>
<feColorMatrix in="SourceAlpha" type="matrix" values="0 0 0 0 0 0 0 0 0 0 0 0 0 0 0 0 0 0 127 0" result="hardAlpha"/>
<feOffset dy="0.327372"/>
<feGaussianBlur stdDeviation="0.654744"/>
<feComposite in2="hardAlpha" operator="arithmetic" k2="-1" k3="1"/>
<feColorMatrix type="matrix" values="0 0 0 0 0.643137 0 0 0 0 0.544575 0 0 0 0 0.415686 0 0 0 0.2 0"/>
<feBlend mode="normal" in2="shape" result="effect2_innerShadow_732_5667"/>
<feColorMatrix in="SourceAlpha" type="matrix" values="0 0 0 0 0 0 0 0 0 0 0 0 0 0 0 0 0 0 127 0" result="hardAlpha"/>
<feOffset dy="-0.818429"/>
<feGaussianBlur stdDeviation="0.654744"/>
<feComposite in2="hardAlpha" operator="arithmetic" k2="-1" k3="1"/>
<feColorMatrix type="matrix" values="0 0 0 0 0.811765 0 0 0 0 0.643464 0 0 0 0 0.407843 0 0 0 0.8 0"/>
<feBlend mode="normal" in2="effect2_innerShadow_732_5667" result="effect3_innerShadow_732_5667"/>
</filter>
<linearGradient id="paint0_linear_732_5667" x1="14.5883" y1="20.4954" x2="14.5132" y2="23.7738" gradientUnits="userSpaceOnUse">
<stop stop-color="#FFA600"/>
<stop offset="1" stop-color="#FF6F00"/>
</linearGradient>
<linearGradient id="paint1_linear_732_5667" x1="14.0073" y1="16.395" x2="11.8424" y2="18.8581" gradientUnits="userSpaceOnUse">
<stop stop-color="#FFA600"/>
<stop offset="1" stop-color="#FF6F00"/>
</linearGradient>
<linearGradient id="paint2_linear_732_5667" x1="102.48" y1="2.19141" x2="102.48" y2="28.1914" gradientUnits="userSpaceOnUse">
<stop stop-color="#FFA600"/>
<stop offset="1" stop-color="#FF6F00"/>
</linearGradient>
</defs>
</svg>
