<svg viewBox="0 0 188 24" fill="none" xmlns="http://www.w3.org/2000/svg">
<path d="M4.778 14.8V13.682H3.374V12.46H1.97V11.186H0.514V4.088H1.97V2.762H3.322V1.566H4.596V0.473999H16.218V1.67H17.622V4.816H16.218V6.038H8.054V6.974H7.092V8.534H8.054V9.47H13.696V10.614H15.074V11.81H16.504V13.11H17.96V20.182H16.504V21.508H15.126V22.704H13.878V23.822H2.178V22.6H0.826V19.454H2.178V18.258H10.342V17.296H11.304V15.762H10.342V14.8H4.778ZM26.2812 7.416V16.906H27.7892V18.31H36.1872V19.584H37.5652V22.548H36.1872V23.848H24.6432V22.574H23.0052V21.118H21.4712V19.558H20.0152V4.764H21.4712V3.178H23.0052V1.722H24.6432V0.473999H36.1872V1.774H37.5652V4.738H36.1872V5.986H27.7892V7.416H26.2812ZM53.4482 15.892H54.8262V17.296H56.2302V18.674H57.5562V22.6H56.2302V23.822H52.2522V22.6H50.9002V21.222H49.6002V19.792H48.4042V18.336H47.2342V16.906H45.8302V22.652H44.5822V23.848H40.9682V22.652H39.7202V1.722H40.9682V0.473999H53.6042V1.722H55.0082V3.048H56.3342V4.582H57.3742V11.836H56.1782V13.292H54.8522V14.696H53.4482V15.892ZM49.9382 11.758V10.484H51.2122V6.974H49.9382V5.7H45.8042V11.758H49.9382ZM71.4038 18.336V19.558H72.5998V22.652H71.4038V23.848H60.2238V22.652H59.0018V19.558H60.2238V18.336H62.7198V5.934H60.2238V4.738H59.0018V1.644H60.2238V0.447999H71.4038V1.644H72.5998V4.738H71.4038V5.934H68.9078V18.336H71.4038ZM84.444 11.862V10.614H85.718V6.974H84.444V5.7H80.31V11.862H84.444ZM91.88 4.582V13.006H90.684V14.514H89.358V15.84H87.954V17.114H80.336V22.574H79.088V23.848H75.474V22.574H74.226V1.722H75.474V0.473999H88.11V1.722H89.514V3.048H90.84V4.582H91.88ZM110.413 1.67H111.609V4.868H110.413V6.064H105.603V22.652H104.407V23.848H100.559V22.652H99.3625V6.064H94.4745V4.868H93.2785V1.67H94.4745V0.473999H110.413V1.67ZM131.582 4.712V19.61H130.1V21.196H128.67V22.574H127.344V23.848H117.464V22.574H116.138V21.196H114.708V19.61H113.226V4.712H114.708V3.126H116.138V1.722H117.464V0.473999H127.344V1.722H128.67V3.126H130.1V4.712H131.582ZM119.232 7.26V17.062H120.584V18.466H124.224V17.062H125.576V7.26H124.224V5.83H120.584V7.26H119.232ZM144.061 11.862V10.614H145.335V6.974H144.061V5.7H139.927V11.862H144.061ZM151.497 4.582V13.006H150.301V14.514H148.975V15.84H147.571V17.114H139.953V22.574H138.705V23.848H135.091V22.574H133.843V1.722H135.091V0.473999H147.727V1.722H149.131V3.048H150.457V4.582H151.497ZM165.324 18.336V19.558H166.52V22.652H165.324V23.848H154.144V22.652H152.922V19.558H154.144V18.336H156.64V5.934H154.144V4.738H152.922V1.644H154.144V0.447999H165.324V1.644H166.52V4.738H165.324V5.934H162.828V18.336H165.324ZM181.224 9.496H179.872V7.65H178.598V6.038H176.83V7.65H175.556V9.496H174.204V11.81H181.224V9.496ZM174.204 17.114V22.652H172.93V23.848H169.394V22.652H168.146V7.312H169.498V5.18H170.85V3.334H172.176V1.826H173.45V0.473999H181.952V1.826H183.2V3.334H184.526V5.18H185.904V7.312H187.282V22.652H186.008V23.848H182.472V22.652H181.224V17.114H174.204Z" fill="url(#paint0_linear_288_275)"/>
<defs>
<linearGradient id="paint0_linear_288_275" x1="94" y1="31" x2="94" y2="-7" gradientUnits="userSpaceOnUse">
<stop stop-color="#FFA600"/>
<stop offset="1" stop-color="#FF6F00"/>
</linearGradient>
</defs>
</svg>
